# xmcd
#
# Track frame offsets:
#	150
#	9025
#	17660
#	28230
#	42845
#	53702
#	66280
#	74185
#	84257
#	96272
#
# Disc length: 1422
#
# Revision: 2
# Processed by: cddbd v1.5.1PL0 Copyright (c) Steve Scherf et al.
# Submitted via: EasyCDDAExtractor 7.0.0.1
# Normalized: r1:DSETVAR1
#
DISCID=7c058c0a
DTITLE=Various Artist - Country Sunshine
DYEAR=1998
DGENRE=Country
TTITLE0=Dottie Wst - Country Sunshine
TTITLE1=Don Gibson - Sweet Dreams (of You)
TTITLE2=Glenn Yarbrough - Baby the Rain Must Fall
TTITLE3=Jeannie C. Riley - Harper Valley P.T.A
TTITLE4=John Loudermilk - Then You Can Tell Me Goodbye
TTITLE5=Bill Anderson - Still
TTITLE6=Lester Flatt - Feudin' Banjos
TTITLE7=Charlie Rich - I Don't See Me In Your Eyes
TTITLE8=Sons of the Pioneers - Tumbling Tumbleweeds
TTITLE9=The Everly Brothers - All I Have To Do Is Dream
EXTD=
EXTT0=
EXTT1=
EXTT2=
EXTT3=
EXTT4=
EXTT5=
EXTT6=
EXTT7=
EXTT8=
EXTT9=
PLAYORDER=
